<svg width="344" height="101" viewBox="0 0 344 101" fill="none" xmlns="http://www.w3.org/2000/svg">
<path d="M86.63 70.21V83.31H15V70.21H43.77V56.37H57.86V70.21H86.63ZM17.4 59.1V46.25C29.01 46 39.95 39.78 43.93 29.42H18.65V16.66H82.98V29.42H59.1C58.69 31.16 58.11 32.74 57.44 34.39L85.96 48.4L79.58 59.67L50.56 45.08C42.52 53.7 30.42 59.01 17.4 59.09V59.1Z" fill="#99A6FF"/>
<g style="mix-blend-mode:multiply">
<path d="M60.2201 22.42C59.9901 25.29 59.5401 27.61 59.1101 29.42H43.9301L43.9501 29.36C44.0101 29.14 44.2301 28.34 44.4901 27.17L44.5101 27.09C45.0401 24.61 45.6901 20.89 45.5001 16.66H60.3901C60.4201 18.78 60.3501 20.69 60.2201 22.42Z" fill="#99A6FF"/>
</g>
<path d="M44.49 27.17C44.23 28.34 44.01 29.14 43.95 29.36L44.49 27.17Z" fill="#99A6FF"/>
<g style="mix-blend-mode:multiply">
<path d="M57.44 34.4101C57.3 34.7401 54.91 40.1401 50.57 45.0901L37.61 38.5801C40.37 36.0601 42.56 32.9901 43.93 29.4201L43.95 29.3601C44 29.1901 44.13 28.7001 44.3 27.9601L47.28 29.4201L57.44 34.4101Z" fill="#99A6FF"/>
</g>
<g style="mix-blend-mode:multiply">
<path d="M43.77 70.2301V83.3101H57.86V70.2101L43.77 70.2301Z" fill="#99A6FF"/>
</g>
<path d="M246.13 70.21V83.31H174.5V70.21H203.27V56.37H217.36V70.21H246.13ZM176.91 59.1V46.25C188.52 46 199.46 39.78 203.44 29.42H178.16V16.66H242.49V29.42H218.61C218.2 31.16 217.62 32.74 216.95 34.39L245.47 48.4L239.09 59.67L210.08 45.08C202.04 53.7 189.93 59.01 176.92 59.09L176.91 59.1Z" fill="#99A6FF"/>
<g style="mix-blend-mode:multiply">
<path d="M219.71 22.42C219.48 25.29 219.03 27.61 218.6 29.42H203.42L203.44 29.36C203.5 29.14 203.72 28.34 203.98 27.17L204 27.09C204.53 24.61 205.18 20.89 204.99 16.66H219.88C219.91 18.78 219.84 20.69 219.71 22.42Z" fill="#99A6FF"/>
</g>
<g style="mix-blend-mode:multiply">
<path d="M216.93 34.4101C216.79 34.7401 214.4 40.1401 210.06 45.0901L197.1 38.5801C199.86 36.0601 202.05 32.9901 203.42 29.4201L203.44 29.3601C203.49 29.1901 203.62 28.7001 203.79 27.9601L206.77 29.4201L216.93 34.4101Z" fill="#99A6FF"/>
</g>
<g style="mix-blend-mode:multiply">
<path d="M203.26 70.2301V83.3101H217.35L217.36 70.2101L203.26 70.2301Z" fill="#99A6FF"/>
</g>
<path d="M95.99 55.87V43.68C112.82 43.51 123.93 38.29 123.93 28.84V27.76H95.99V15.83H138.19V26.11C138.19 46.84 120.37 55.87 95.99 55.87ZM98.39 59.6H161.23V86.63H146.97V71.63H98.39V59.61V59.6ZM169.52 41.53H161.23V57.11H147.22V15H161.23V27.93H169.52V41.53Z" fill="#75B4FE"/>
<g style="mix-blend-mode:multiply">
<path d="M138.19 15.83V26.11C138.19 26.67 138.18 27.23 138.15 27.77H123.93V15.83H138.19Z" fill="#75B4FE"/>
</g>
<g style="mix-blend-mode:multiply">
<path d="M161.24 27.9301H147.23V41.5201H161.24V27.9301Z" fill="#75B4FE"/>
</g>
<g style="mix-blend-mode:multiply">
<path d="M161.24 59.6H146.98V71.62H161.24V59.6Z" fill="#75B4FE"/>
</g>
<path d="M255.49 55.87V43.68C272.32 43.51 283.43 38.29 283.43 28.84V27.76H255.49V15.83H297.69V26.11C297.69 46.84 279.87 55.87 255.49 55.87ZM257.89 59.6H320.73V86.63H306.47V71.63H257.89V59.61V59.6ZM329.02 41.53H320.73V57.11H306.72V15H320.73V27.93H329.02V41.53Z" fill="#8CD7C1"/>
<g style="mix-blend-mode:multiply">
<path d="M297.69 15.83V26.11C297.69 26.67 297.68 27.23 297.65 27.77H283.43V15.83H297.69Z" fill="#8CD7C1"/>
</g>
<g style="mix-blend-mode:multiply">
<path d="M320.74 27.9301H306.73V41.5201H320.74V27.9301Z" fill="#8CD7C1"/>
</g>
<g style="mix-blend-mode:multiply">
<path d="M320.73 59.6H306.47V71.62H320.73V59.6Z" fill="#8CD7C1"/>
</g>
</svg>
